<?xml version="1.0" encoding="UTF-8"?>
<svg width="192" height="192" viewBox="0 0 192 192" xmlns="http://www.w3.org/2000/svg">
  <defs>
    <linearGradient id="grad" x1="0%" y1="0%" x2="100%" y2="100%">
      <stop offset="0%" style="stop-color:#667eea;stop-opacity:1" />
      <stop offset="100%" style="stop-color:#764ba2;stop-opacity:1" />
    </linearGradient>
  </defs>
  
  <!-- Background -->
  <rect width="192" height="192" rx="38.400000000000006" fill="url(#grad)"/>
  
  <!-- Car icon -->
  <g transform="translate(38.400000000000006, 67.19999999999999)">
    <!-- Car body -->
    <path d="M 19.200000000000003 28.799999999999997 L 28.799999999999997 9.600000000000001 L 86.4 9.600000000000001 L 96 28.799999999999997 L 105.60000000000001 28.799999999999997 C 111.35999999999999 28.799999999999997 115.19999999999999 32.64 115.19999999999999 38.400000000000006 L 115.19999999999999 48 C 115.19999999999999 53.760000000000005 111.35999999999999 57.599999999999994 105.60000000000001 57.599999999999994 L 9.600000000000001 57.599999999999994 C 3.84 57.599999999999994 0 53.760000000000005 0 48 L 0 38.400000000000006 C 0 32.64 3.84 28.799999999999997 9.600000000000001 28.799999999999997 Z" 
          fill="white" stroke="white" stroke-width="1.92"/>
    
    <!-- Windows -->
    <rect x="32.64" y="15.36" width="23.04" height="11.52" rx="1.92" fill="url(#grad)" opacity="0.7"/>
    <rect x="59.519999999999996" y="15.36" width="23.04" height="11.52" rx="1.92" fill="url(#grad)" opacity="0.7"/>
    
    <!-- Wheels -->
    <circle cx="23.04" cy="57.599999999999994" r="7.68" fill="white"/>
    <circle cx="23.04" cy="57.599999999999994" r="4.800000000000001" fill="url(#grad)"/>
    <circle cx="92.16" cy="57.599999999999994" r="7.68" fill="white"/>
    <circle cx="92.16" cy="57.599999999999994" r="4.800000000000001" fill="url(#grad)"/>
  </g>
  
  <!-- AI sparkle -->
  <g transform="translate(134.39999999999998, 48)">
    <path d="M 0 -11.52 L 2.88 -2.88 L 11.52 0 L 2.88 2.88 L 0 11.52 L -2.88 2.88 L -11.52 0 L -2.88 -2.88 Z" 
          fill="white" opacity="0.9"/>
  </g>
  <g transform="translate(144, 67.19999999999999)">
    <path d="M 0 -7.68 L 1.92 -1.92 L 7.68 0 L 1.92 1.92 L 0 7.68 L -1.92 1.92 L -7.68 0 L -1.92 -1.92 Z" 
          fill="white" opacity="0.7"/>
  </g>
</svg>