<?xml version="1.0" encoding="UTF-8"?>
<svg width="512" height="512" viewBox="0 0 512 512" xmlns="http://www.w3.org/2000/svg">
  <defs>
    <linearGradient id="grad" x1="0%" y1="0%" x2="100%" y2="100%">
      <stop offset="0%" style="stop-color:#667eea;stop-opacity:1" />
      <stop offset="100%" style="stop-color:#764ba2;stop-opacity:1" />
    </linearGradient>
  </defs>
  
  <!-- Background -->
  <rect width="512" height="512" rx="102.4" fill="url(#grad)"/>
  
  <!-- Car icon -->
  <g transform="translate(102.4, 179.2)">
    <!-- Car body -->
    <path d="M 51.2 76.8 L 76.8 25.6 L 230.4 25.6 L 256 76.8 L 281.6 76.8 C 296.96 76.8 307.2 87.04 307.2 102.4 L 307.2 128 C 307.2 143.36 296.96 153.6 281.6 153.6 L 25.6 153.6 C 10.24 153.6 0 143.36 0 128 L 0 102.4 C 0 87.04 10.24 76.8 25.6 76.8 Z" 
          fill="white" stroke="white" stroke-width="5.12"/>
    
    <!-- Windows -->
    <rect x="87.04" y="40.96" width="61.44" height="30.72" rx="5.12" fill="url(#grad)" opacity="0.7"/>
    <rect x="158.72" y="40.96" width="61.44" height="30.72" rx="5.12" fill="url(#grad)" opacity="0.7"/>
    
    <!-- Wheels -->
    <circle cx="61.44" cy="153.6" r="20.48" fill="white"/>
    <circle cx="61.44" cy="153.6" r="12.8" fill="url(#grad)"/>
    <circle cx="245.76" cy="153.6" r="20.48" fill="white"/>
    <circle cx="245.76" cy="153.6" r="12.8" fill="url(#grad)"/>
  </g>
  
  <!-- AI sparkle -->
  <g transform="translate(358.4, 128)">
    <path d="M 0 -30.72 L 7.68 -7.68 L 30.72 0 L 7.68 7.68 L 0 30.72 L -7.68 7.68 L -30.72 0 L -7.68 -7.68 Z" 
          fill="white" opacity="0.9"/>
  </g>
  <g transform="translate(384, 179.2)">
    <path d="M 0 -20.48 L 5.12 -5.12 L 20.48 0 L 5.12 5.12 L 0 20.48 L -5.12 5.12 L -20.48 0 L -5.12 -5.12 Z" 
          fill="white" opacity="0.7"/>
  </g>
</svg>